<svg width="40" height="40" viewBox="0 0 40 40" fill="none" xmlns="http://www.w3.org/2000/svg">
<path d="M26.25 36.25H6.25C5.25544 36.25 4.30161 35.8549 3.59835 35.1517C2.89509 34.4484 2.5 33.4946 2.5 32.5V20C2.5 19.6685 2.6317 19.3505 2.86612 19.1161C3.10054 18.8817 3.41848 18.75 3.75 18.75C4.08152 18.75 4.39946 18.8817 4.63388 19.1161C4.8683 19.3505 5 19.6685 5 20V32.5C5 32.8315 5.1317 33.1495 5.36612 33.3839C5.60054 33.6183 5.91848 33.75 6.25 33.75H26.25C26.5815 33.75 26.8995 33.6183 27.1339 33.3839C27.3683 33.1495 27.5 32.8315 27.5 32.5V20C27.5 19.6685 27.6317 19.3505 27.8661 19.1161C28.1005 18.8817 28.4185 18.75 28.75 18.75C29.0815 18.75 29.3995 18.8817 29.6339 19.1161C29.8683 19.3505 30 19.6685 30 20V32.5C30 33.4946 29.6049 34.4484 28.9017 35.1517C28.1984 35.8549 27.2446 36.25 26.25 36.25Z" fill="white"/>
<path d="M15 36.25H8.75C8.41848 36.25 8.10054 36.1183 7.86612 35.8839C7.6317 35.6495 7.5 35.3315 7.5 35V27.5C7.5 26.5054 7.89509 25.5516 8.59835 24.8483C9.30161 24.1451 10.2554 23.75 11.25 23.75H12.5C13.4946 23.75 14.4484 24.1451 15.1517 24.8483C15.8549 25.5516 16.25 26.5054 16.25 27.5V35C16.25 35.3315 16.1183 35.6495 15.8839 35.8839C15.6495 36.1183 15.3315 36.25 15 36.25ZM10 33.75H13.75V27.5C13.75 27.1685 13.6183 26.8505 13.3839 26.6161C13.1495 26.3817 12.8315 26.25 12.5 26.25H11.25C10.9185 26.25 10.6005 26.3817 10.3661 26.6161C10.1317 26.8505 10 27.1685 10 27.5V33.75Z" fill="white"/>
<path d="M27.5 21.25C26.1739 21.25 24.9021 20.7232 23.9645 19.7855C23.0268 18.8479 22.5 17.5761 22.5 16.25C22.5 15.9185 22.6317 15.6005 22.8661 15.3661C23.1005 15.1317 23.4185 15 23.75 15C24.0815 15 24.3995 15.1317 24.6339 15.3661C24.8683 15.6005 25 15.9185 25 16.25C25 16.913 25.2634 17.5489 25.7322 18.0178C26.2011 18.4866 26.837 18.75 27.5 18.75C28.163 18.75 28.7989 18.4866 29.2678 18.0178C29.7366 17.5489 30 16.913 30 16.25V15.3L26.725 8.75H5.775L2.5 15.3V16.25C2.5 16.913 2.76339 17.5489 3.23223 18.0178C3.70107 18.4866 4.33696 18.75 5 18.75C5.66304 18.75 6.29893 18.4866 6.76777 18.0178C7.23661 17.5489 7.5 16.913 7.5 16.25C7.5 15.9185 7.6317 15.6005 7.86612 15.3661C8.10054 15.1317 8.41848 15 8.75 15C9.08152 15 9.39946 15.1317 9.63388 15.3661C9.8683 15.6005 10 15.9185 10 16.25C10 17.5761 9.47322 18.8479 8.53553 19.7855C7.59785 20.7232 6.32608 21.25 5 21.25C3.67392 21.25 2.40215 20.7232 1.46447 19.7855C0.526784 18.8479 0 17.5761 0 16.25V15C0.00117323 14.8043 0.04827 14.6117 0.1375 14.4375L3.8875 6.9375C3.99138 6.73136 4.1503 6.558 4.34667 6.43665C4.54303 6.3153 4.76917 6.2507 5 6.25H27.5C27.7308 6.2507 27.957 6.3153 28.1533 6.43665C28.3497 6.558 28.5086 6.73136 28.6125 6.9375L32.3625 14.4375C32.4517 14.6117 32.4988 14.8043 32.5 15V16.25C32.5 17.5761 31.9732 18.8479 31.0355 19.7855C30.0979 20.7232 28.8261 21.25 27.5 21.25Z" fill="white"/>
<path d="M12.5 21.25C11.1739 21.25 9.90215 20.7232 8.96447 19.7855C8.02678 18.8479 7.5 17.5761 7.5 16.25C7.5 15.9185 7.6317 15.6005 7.86612 15.3661C8.10054 15.1317 8.41848 15 8.75 15C9.08152 15 9.39946 15.1317 9.63388 15.3661C9.8683 15.6005 10 15.9185 10 16.25C10 16.913 10.2634 17.5489 10.7322 18.0178C11.2011 18.4866 11.837 18.75 12.5 18.75C13.163 18.75 13.7989 18.4866 14.2678 18.0178C14.7366 17.5489 15 16.913 15 16.25C15 15.9185 15.1317 15.6005 15.3661 15.3661C15.6005 15.1317 15.9185 15 16.25 15C16.5815 15 16.8995 15.1317 17.1339 15.3661C17.3683 15.6005 17.5 15.9185 17.5 16.25C17.5 17.5761 16.9732 18.8479 16.0355 19.7855C15.0979 20.7232 13.8261 21.25 12.5 21.25Z" fill="white"/>
<path d="M20 21.25C18.6739 21.25 17.4021 20.7232 16.4645 19.7855C15.5268 18.8479 15 17.5761 15 16.25C15 15.9185 15.1317 15.6005 15.3661 15.3661C15.6005 15.1317 15.9185 15 16.25 15C16.5815 15 16.8995 15.1317 17.1339 15.3661C17.3683 15.6005 17.5 15.9185 17.5 16.25C17.5 16.913 17.7634 17.5489 18.2322 18.0178C18.7011 18.4866 19.337 18.75 20 18.75C20.663 18.75 21.2989 18.4866 21.7678 18.0178C22.2366 17.5489 22.5 16.913 22.5 16.25C22.5 15.9185 22.6317 15.6005 22.8661 15.3661C23.1005 15.1317 23.4185 15 23.75 15C24.0815 15 24.3995 15.1317 24.6339 15.3661C24.8683 15.6005 25 15.9185 25 16.25C25 17.5761 24.4732 18.8479 23.5355 19.7855C22.5979 20.7232 21.3261 21.25 20 21.25Z" fill="white"/>
<path d="M23.75 27.5H20C19.6685 27.5 19.3505 27.3683 19.1161 27.1339C18.8817 26.8995 18.75 26.5815 18.75 26.25C18.75 25.9185 18.8817 25.6005 19.1161 25.3661C19.3505 25.1317 19.6685 25 20 25H23.75C24.0815 25 24.3995 25.1317 24.6339 25.3661C24.8683 25.6005 25 25.9185 25 26.25C25 26.5815 24.8683 26.8995 24.6339 27.1339C24.3995 27.3683 24.0815 27.5 23.75 27.5Z" fill="white"/>
</svg>
