<svg width="40" height="40" viewBox="0 0 40 40" fill="none" xmlns="http://www.w3.org/2000/svg">
<path d="M23.125 11.25C22.6362 11.25 22.1962 11.4412 21.8612 11.7475L21.8575 11.7425L14.3575 18.6175C13.9712 18.9738 13.75 19.4738 13.75 20C13.75 20.5262 13.9712 21.0262 14.3575 21.3825L21.8575 28.2575L21.8613 28.2526C22.1963 28.5588 22.6363 28.75 23.125 28.75C24.1601 28.75 25.0001 27.91 25.0001 26.875C25.0001 26.3288 24.7626 25.8399 24.3888 25.4975L24.3925 25.4925L18.4 20L24.3925 14.5063L24.3887 14.5012C24.7625 14.16 25 13.6725 25 13.125C25 12.09 24.16 11.25 23.125 11.25ZM20 0C8.95503 0 0 8.95503 0 20C0 31.045 8.95503 40 20 40C31.045 40 40 31.045 40 20C40 8.95503 31.045 0 20 0ZM20 36.25C11.04 36.25 3.75 28.96 3.75 20C3.75 11.04 11.04 3.75 20 3.75C28.96 3.75 36.25 11.04 36.25 20C36.25 28.96 28.96 36.25 20 36.25Z" fill="white"/>
</svg>
