<svg width="40" height="40" viewBox="0 0 40 40" fill="none" xmlns="http://www.w3.org/2000/svg">
<path d="M30.7419 40H9.66582C7.68165 40 6.06754 38.3859 6.06754 36.4036L3.08282 22.3862C1.95582 21.8274 1.21387 20.6853 1.21387 19.4129C1.21387 17.5514 2.72794 16.0392 4.58748 16.0392H35.4106C37.2701 16.0392 38.7861 17.5514 38.7861 19.4129C38.7861 20.5022 38.2594 21.499 37.3816 22.1276L34.3156 36.6301C34.3402 38.3858 32.7261 40 30.7419 40ZM4.58748 18.2518C3.94749 18.2518 3.42646 18.7729 3.42646 19.4129C3.42646 19.9169 3.79086 20.3643 4.3137 20.4965C4.72143 20.6004 5.0349 20.9289 5.11985 21.3404L8.25563 36.1752C8.28013 37.1664 8.9013 37.7856 9.664 37.7856H30.7401C31.5047 37.7856 32.1238 37.1664 32.1238 36.4018L35.3125 21.2008C35.3823 20.8667 35.6013 20.5835 35.9053 20.4344C36.3149 20.2361 36.5698 19.8416 36.5698 19.4111C36.5698 18.7712 36.0488 18.2501 35.4088 18.2501H4.58748V18.2518Z" fill="white"/>
<path d="M12.5071 33.5095C12.5071 33.9381 12.1559 34.2893 11.7273 34.2893H11.514C11.0854 34.2893 10.7362 33.9381 10.7362 33.5095V24.3968C10.7362 23.9682 11.0873 23.619 11.514 23.619H11.7293C12.1578 23.619 12.509 23.9701 12.509 24.3968V33.5095H12.5071Z" fill="white"/>
<path d="M18.2084 33.5095C18.2084 33.9381 17.8572 34.2893 17.4306 34.2893H17.2135C16.7849 34.2893 16.4338 33.9381 16.4338 33.5095V24.3968C16.4338 23.9682 16.7849 23.619 17.2135 23.619H17.4288C17.8573 23.619 18.2065 23.9701 18.2065 24.3968V33.5095H18.2084Z" fill="white"/>
<path d="M23.9078 33.5095C23.9078 33.9381 23.5567 34.2893 23.13 34.2893H22.9147C22.4861 34.2893 22.135 33.9381 22.135 33.5095V24.3968C22.135 23.9682 22.4861 23.619 22.9147 23.619H23.13C23.5586 23.619 23.9078 23.9701 23.9078 24.3968V33.5095Z" fill="white"/>
<path d="M29.6092 33.5095C29.6092 33.9381 29.2581 34.2893 28.8295 34.2893H28.6142C28.1856 34.2893 27.8364 33.9381 27.8364 33.5095V24.3968C27.8364 23.9682 28.1876 23.619 28.6142 23.619H28.8295C29.2581 23.619 29.6092 23.9701 29.6092 24.3968V33.5095Z" fill="white"/>
<path d="M20.0227 0C12.8601 0 7.05298 5.80703 7.05298 12.9696H9.39963C9.39963 7.1021 14.1552 2.34665 20.0226 2.34665C25.8899 2.34665 30.6455 7.10221 30.6455 12.9696H32.9921C32.9903 5.80703 27.1851 0 20.0227 0Z" fill="white"/>
</svg>
