<svg width="40" height="40" viewBox="0 0 40 40" fill="none" xmlns="http://www.w3.org/2000/svg">
<path d="M26.6625 28.75H13.1625C12.3387 28.7516 11.5374 28.4819 10.8822 27.9826C10.227 27.4833 9.75442 26.7822 9.5375 25.9875L6.25 14.075C6.19944 13.8896 6.19231 13.695 6.22916 13.5064C6.26602 13.3178 6.34587 13.1402 6.4625 12.9875C6.58401 12.8294 6.74159 12.7026 6.92207 12.6178C7.10256 12.533 7.30072 12.4926 7.5 12.5H31.25C31.4336 12.4997 31.6151 12.5399 31.7814 12.6177C31.9478 12.6954 32.095 12.8089 32.2125 12.95C32.3285 13.0913 32.4122 13.2563 32.4575 13.4334C32.5029 13.6105 32.5089 13.7954 32.475 13.975L30.35 25.675C30.1921 26.5379 29.7366 27.3182 29.0629 27.88C28.3892 28.4419 27.5398 28.7497 26.6625 28.75ZM9.1625 15L11.975 25.325C12.0482 25.5977 12.2117 25.8376 12.4387 26.0055C12.6656 26.1735 12.9428 26.2597 13.225 26.25H26.725C27.021 26.2548 27.3091 26.1545 27.538 25.9668C27.7669 25.7791 27.9218 25.5162 27.975 25.225L29.75 15H9.1625Z" fill="white"/>
<path d="M7.5 15C7.21944 15.0104 6.94356 14.926 6.7168 14.7605C6.49004 14.5949 6.32561 14.3579 6.25 14.0875L4.3125 7.1625C4.23689 6.89213 4.07246 6.65508 3.8457 6.48954C3.61894 6.32401 3.34306 6.23963 3.0625 6.25H1.25C0.918479 6.25 0.600537 6.11831 0.366116 5.88389C0.131696 5.64947 0 5.33152 0 5C0 4.66848 0.131696 4.35054 0.366116 4.11612C0.600537 3.8817 0.918479 3.75 1.25 3.75H3.1125C3.92925 3.74885 4.72404 4.01438 5.37608 4.50623C6.02812 4.99808 6.50176 5.68936 6.725 6.475L8.75 13.4125C8.80081 13.5766 8.81724 13.7495 8.79824 13.9203C8.77925 14.0911 8.72526 14.2561 8.63963 14.4051C8.554 14.554 8.43857 14.6838 8.30056 14.7861C8.16255 14.8885 8.00491 14.9613 7.8375 15C7.72574 15.0182 7.61176 15.0182 7.5 15Z" fill="white"/>
<path d="M16.25 36.25C15.7555 36.25 15.2722 36.1034 14.8611 35.8287C14.45 35.554 14.1295 35.1635 13.9403 34.7067C13.7511 34.2499 13.7016 33.7472 13.798 33.2623C13.8945 32.7773 14.1326 32.3319 14.4822 31.9822C14.8319 31.6326 15.2773 31.3945 15.7623 31.298C16.2472 31.2016 16.7499 31.2511 17.2067 31.4403C17.6635 31.6295 18.054 31.95 18.3287 32.3611C18.6034 32.7722 18.75 33.2555 18.75 33.75C18.75 34.413 18.4866 35.0489 18.0178 35.5178C17.5489 35.9866 16.913 36.25 16.25 36.25V36.25Z" fill="white"/>
<path d="M23.75 36.25C23.2555 36.25 22.7722 36.1034 22.3611 35.8287C21.95 35.554 21.6295 35.1635 21.4403 34.7067C21.2511 34.2499 21.2016 33.7472 21.298 33.2623C21.3945 32.7773 21.6326 32.3319 21.9822 31.9822C22.3319 31.6326 22.7773 31.3945 23.2623 31.298C23.7472 31.2016 24.2499 31.2511 24.7067 31.4403C25.1635 31.6295 25.554 31.95 25.8287 32.3611C26.1034 32.7722 26.25 33.2555 26.25 33.75C26.25 34.413 25.9866 35.0489 25.5178 35.5178C25.0489 35.9866 24.413 36.25 23.75 36.25Z" fill="white"/>
<path d="M23.75 21.25H16.25C15.9185 21.25 15.6005 21.1183 15.3661 20.8839C15.1317 20.6495 15 20.3315 15 20C15 19.6685 15.1317 19.3505 15.3661 19.1161C15.6005 18.8817 15.9185 18.75 16.25 18.75H23.75C24.0815 18.75 24.3995 18.8817 24.6339 19.1161C24.8683 19.3505 25 19.6685 25 20C25 20.3315 24.8683 20.6495 24.6339 20.8839C24.3995 21.1183 24.0815 21.25 23.75 21.25Z" fill="white"/>
</svg>
