<svg width="38" height="34" viewBox="0 0 38 34" fill="none" xmlns="http://www.w3.org/2000/svg">
<path d="M36.5 15.75C36.2395 15.7483 35.986 15.6653 35.775 15.5125L19 3.5375L2.225 15.5125C1.95588 15.6719 1.63678 15.7246 1.3307 15.6602C1.02462 15.5958 0.753795 15.419 0.571698 15.1647C0.389601 14.9104 0.309461 14.5971 0.347099 14.2866C0.384737 13.976 0.537418 13.6909 0.775 13.4875L18.275 0.987497C18.4867 0.836767 18.7401 0.755768 19 0.755768C19.2599 0.755768 19.5133 0.836767 19.725 0.987497L37.225 13.4875C37.4384 13.642 37.5976 13.86 37.6797 14.1103C37.7618 14.3607 37.7628 14.6306 37.6824 14.8815C37.602 15.1324 37.4443 15.3515 37.232 15.5074C37.0197 15.6634 36.7635 15.7483 36.5 15.75Z" fill="white"/>
<path d="M5.25 8.25C4.91848 8.25 4.60054 8.1183 4.36612 7.88388C4.1317 7.64946 4 7.33152 4 7V2C4 1.66848 4.1317 1.35054 4.36612 1.11612C4.60054 0.881696 4.91848 0.75 5.25 0.75H10.25C10.5815 0.75 10.8995 0.881696 11.1339 1.11612C11.3683 1.35054 11.5 1.66848 11.5 2C11.5 2.33152 11.3683 2.64946 11.1339 2.88388C10.8995 3.1183 10.5815 3.25 10.25 3.25H6.5V7C6.5 7.33152 6.3683 7.64946 6.13388 7.88388C5.89946 8.1183 5.58152 8.25 5.25 8.25Z" fill="white"/>
<path d="M30.25 33.25H24C23.6685 33.25 23.3505 33.1183 23.1161 32.8839C22.8817 32.6495 22.75 32.3315 22.75 32V23.25H15.25V32C15.25 32.3315 15.1183 32.6495 14.8839 32.8839C14.6495 33.1183 14.3315 33.25 14 33.25H7.75C6.75544 33.25 5.80161 32.8549 5.09835 32.1517C4.39509 31.4484 4 30.4946 4 29.5V17C4 16.6685 4.1317 16.3505 4.36612 16.1161C4.60054 15.8817 4.91848 15.75 5.25 15.75C5.58152 15.75 5.89946 15.8817 6.13388 16.1161C6.3683 16.3505 6.5 16.6685 6.5 17V29.5C6.5 29.8315 6.6317 30.1495 6.86612 30.3839C7.10054 30.6183 7.41848 30.75 7.75 30.75H12.75V22C12.75 21.6685 12.8817 21.3505 13.1161 21.1161C13.3505 20.8817 13.6685 20.75 14 20.75H24C24.3315 20.75 24.6495 20.8817 24.8839 21.1161C25.1183 21.3505 25.25 21.6685 25.25 22V30.75H30.25C30.5815 30.75 30.8995 30.6183 31.1339 30.3839C31.3683 30.1495 31.5 29.8315 31.5 29.5V17C31.5 16.6685 31.6317 16.3505 31.8661 16.1161C32.1005 15.8817 32.4185 15.75 32.75 15.75C33.0815 15.75 33.3995 15.8817 33.6339 16.1161C33.8683 16.3505 34 16.6685 34 17V29.5C34 30.4946 33.6049 31.4484 32.9017 32.1517C32.1984 32.8549 31.2446 33.25 30.25 33.25V33.25Z" fill="white"/>
</svg>
